{"title":"AXS.TV.Concerts.Hosted.By.Mark.Cuban.S01E03.Bret.Michaels.Live.A","uid":15725185,"size":2676750563,"categoryP":"video","categoryS":"hd___tv_shows","magnet":"?xt=urn:btih:13b5e47ab8ef1e083048b885f4e037a9f849daed&amp;dn=AXS.TV.Concerts.Hosted.By.Mark.Cuban.S01E03.Bret.Michaels.Live.A&amp;tr=udp%3A%2F%2Ftracker.leechers-paradise.org%3A6969&amp;tr=udp%3A%2F%2Fzer0day.ch%3A1337&amp;tr=udp%3A%2F%2Fopen.demonii.com%3A1337&amp;tr=udp%3A%2F%2Ftracker.coppersurfer.tk%3A6969&amp;tr=udp%3A%2F%2Fexodus.desync.com%3A6969","seeders":0,"leechers":0,"uploader":"thetorrentlord","files":2,"time":1472706827,"description":"AXS.TV.Concerts.Hosted.By.Mark.Cuban.S01E03.Bret.Michaels.Live.At.The.Bomb.Factory.720p.HDTV.x264-\r\n\r\nTheRealTTL.mkv\r\nFormat                           : Matroska\r\nFile size                        : 2.48 GiB\r\nDuration                         : 1h 26mn\r\nOverall bit rate                 : 4 098 Kbps\r\nMovie name                       : \r\n\r\nAXS.TV.Concerts.Hosted.By.Mark.Cuban.S01E03.Bret.Michaels.Live.At.The.Bomb.Factory.720p.HDTV.x264-\r\n\r\nTheRealTTL\r\nEncoded date                     : UTC 2016-09-01 00:42:23\r\nWriting application              : mkvmerge v3.3.0 ('Language') built on Mar 24 2010 14:59:24\r\nWriting library                  : libebml v0.8.0 + libmatroska v0.9.0\r\n\r\nVideo\r\nID                               : 1\r\nFormat                           : AVC\r\nFormat/Info                      : Advanced Video Codec\r\nFormat profile                   :   \r\nFormat settings, CABAC           : Yes\r\nFormat settings, ReFrames        : 4 frames\r\nMuxing mode                      : Container   \r\nCodec ID                         : V_MPEG4/ISO/AVC\r\nDuration                         : 1h 26mn\r\nBit rate                         : 3 697 Kbps\r\nNominal bit rate                 : 3 776 Kbps\r\nWidth                            : 1 280 pixels\r\nHeight                           : 720 pixels\r\nDisplay aspect ratio             : 16:9\r\nFrame rate mode                  : Variable\r\nFrame rate                       : 29.970 fps\r\nResolution                       : 8 bits\r\nColorimetry                      : 4:2:0\r\nScan type                        : Progressive\r\nBits/(Pixel*Frame)               : 0.134\r\nStream size                      : 2.23 GiB (90%)\r\nTitle                            : \r\n\r\nAXS.TV.Concerts.Hosted.By.Mark.Cuban.S01E03.Bret.Michaels.Live.At.The.Bomb.Factory.720p.HDTV.x264-\r\n\r\nTheRealTTL\r\nWriting library                  : x264 core 142 r2479 dd79a61\r\nEncoding settings                : cabac=1 / ref=1 / deblock=1:0:0 / analyse=0x1:0x111 / me=hex / \r\n\r\nsubme=2 / psy=1 / psy_rd=1.00:0.00 / mixed_ref=0 / me_range=16 / chroma_me=1 / trellis=0 / 8x8dct=0 / \r\n\r\ncqm=0 / deadzone=21,11 / fast_pskip=1 / chroma_qp_offset=0 / threads=12 / lookahead_threads=4 / \r\n\r\nsliced_threads=0 / nr=0 / decimate=1 / interlaced=0 / bluray_compat=0 / constrained_intra=0 / bframes=3 \r\n\r\n/ b_pyramid=2 / b_adapt=1 / b_bias=0 / direct=1 / weightb=1 / open_gop=0 / weightp=1 / keyint=300 / \r\n\r\nkeyint_min=30 / scenecut=40 / intra_refresh=0 / rc_lookahead=10 / rc=2pass / mbtree=1 / bitrate=3776 / \r\n\r\nratetol=1.0 / qcomp=0.60 / qpmin=0 / qpmax=69 / qpstep=4 / cplxblur=20.0 / qblur=0.5 / vbv_maxrate=20000 \r\n\r\n/ vbv_bufsize=25000 / nal_hrd=none / filler=0 / ip_ratio=1.40 / aq=1:1.00\r\nLanguage                         : English\r\nColor primaries                  : BT.709-5, BT.1361, IEC 61966-2-4, SMPTE RP177\r\nTransfer characteristics         : BT.709-5, BT.1361\r\nMatrix coefficients              : BT.709-5, BT.1361, IEC 61966-2-4 709, SMPTE RP177\r\n\r\nAudio\r\nID                               : 2\r\nFormat                           : AC-3\r\nFormat/Info                      : Audio Coding 3\r\nCodec ID                         : A_AC3\r\nDuration                         : 1h 26mn\r\nBit rate mode                    : Constant\r\nBit rate                         : 320 Kbps\r\nChannel(s)                       : 2 channels\r\nChannel positions                : L R\r\nSampling rate                    : 48.0 KHz\r\nStream size                      : 198 MiB (8%)\r\nTitle                            : \r\n\r\nAXS.TV.Concerts.Hosted.By.Mark.Cuban.S01E03.Bret.Michaels.Live.At.The.Bomb.Factory.720p.HDTV.x264-\r\n\r\nTheRealTTL\r\nLanguage                         : English\r\n\r\nMenu\r\n00:00:00.000                     : :Chapter 1\r\n00:06:00.000                     : :Chapter 2\r\n00:12:00.000                     : :Chapter 3\r\n00:18:00.000                     : :Chapter 4\r\n00:24:00.000                     : :Chapter 5\r\n00:30:00.000                     : :Chapter 6\r\n00:36:00.000                     : :Chapter 7\r\n00:42:00.000                     : :Chapter 8\r\n00:48:00.000                     : :Chapter 9\r\n00:54:00.000                     : :Chapter 10\r\n01:00:00.000                     : :Chapter 11\r\n01:06:00.000                     : :Chapter 12\r\n01:12:00.000                     : :Chapter 13\r\n01:18:00.000                     : :Chapter 14\r\n01:24:00.000                     : :Chapter 15","torrent":{"xt":"urn:btih:13b5e47ab8ef1e083048b885f4e037a9f849daed","amp;dn":"AXS.TV.Concerts.Hosted.By.Mark.Cuban.S01E03.Bret.Michaels.Live.A","amp;tr":["udp%3A%2F%2Ftracker.leechers-paradise.org%3A6969","udp%3A%2F%2Fzer0day.ch%3A1337","udp%3A%2F%2Fopen.demonii.com%3A1337","udp%3A%2F%2Ftracker.coppersurfer.tk%3A6969","udp%3A%2F%2Fexodus.desync.com%3A6969"],"infoHash":"13b5e47ab8ef1e083048b885f4e037a9f849daed","infoHashBuffer":{"type":"Buffer","data":[19,181,228,122,184,239,30,8,48,72,184,133,244,224,55,169,248,73,218,237]},"announce":[],"urlList":[]}}